<svg xmlns="http://www.w3.org/2000/svg" width="142.6" height="47.6" viewBox="0 0 142.6 47.6">
  <title>Asset 5</title>
  <g id="Layer_2" data-name="Layer 2">
    <g id="page1">
      <g id="impact_basic" data-name="impact basic">
        <g>
          <path d="M63.5,45.6a6.1,6.1,0,0,1-4.3-1.7,6,6,0,0,1-1.8-4.4V29.8H52.7l-.6.2-3.6,1.3a10.8,10.8,0,0,1-8.4,4.2H27.4L13,36.1h0a10.6,10.6,0,0,1-9.1-4.9,10.7,10.7,0,0,1-.5-11.3A10.5,10.5,0,0,1,13,14l22.4-.4h4.5a10.7,10.7,0,0,1,7,2.5l.2.2.2.2,4.3,1.2,1,.3h5v-.7c0-3.2,0-6.3.1-9.4A5.7,5.7,0,0,1,58,6a6,6,0,0,1,5.7-4H64L91.6,3.7l25.6,1.6c5,.5,23.5,12.5,23.4,20.2-.1,4.7-6.6,9.9-10.5,12.6s-11.1,6.8-14.4,6.8c-8.5.4-42.6.7-51.9.7ZM75,23.6a.8.8,0,0,1,0,.7c.1-.2.2-.3.2-.4Z" fill="#666"/>
          <path d="M63.7,4h.2l53.3,3.3c4.1.4,21.5,11.8,21.4,18.1s-18,17.4-22.9,17.5c-8.6.4-42.6.7-51.8.7h-.4a4.1,4.1,0,0,1-4.1-4.1c0-2.7,0-5.5.1-8.2V27.8H52l-4.3,1.6a1.5,1.5,0,0,0-.6.5A9.3,9.3,0,0,1,40,33.6H33.1L13,34.1h-.1a8.6,8.6,0,0,1-7.3-4,8.9,8.9,0,0,1-.5-9.3A8.8,8.8,0,0,1,13,16l26.7-.5h.2a8.7,8.7,0,0,1,5.7,2.1,3.3,3.3,0,0,0,1,.6L52,19.8h7.6v-.3c0-3.9,0-7.8.1-11.7a2,2,0,0,1,.2-1.1A3.9,3.9,0,0,1,63.7,4M71,33.8h.6a2.3,2.3,0,0,0,1.2-1L77,24.8A1.9,1.9,0,0,0,77,23c-1.4-2.7-2.7-5.5-4.1-8.2a1.9,1.9,0,0,0-3.1-.5,1.8,1.8,0,0,0-.3,2.2l3.4,6.9a.8.8,0,0,1,0,.9l-3.5,6.6a2,2,0,0,0,.1,2.2,1.8,1.8,0,0,0,1.5.7M63.7,0a7.9,7.9,0,0,0-7.6,5.4,5.9,5.9,0,0,0-.4,2.3c-.1,2.8-.1,5.5-.1,8.2H52.9l-.8-.2-3.8-1.1-.2-.2a12.8,12.8,0,0,0-8.2-2.9H35.5L12.9,12A12.5,12.5,0,0,0,1.6,18.9a12.7,12.7,0,0,0,.7,13.4,12.4,12.4,0,0,0,10.6,5.8H13l14.4-.3H40.1a13.1,13.1,0,0,0,9.6-4.5l3-1.1h2.8v7.7a8,8,0,0,0,2.4,5.8,7.9,7.9,0,0,0,5.7,2.3h.4c9.2,0,43.2-.3,51.9-.7,4-.1,10.8-3.9,15.4-7.1,7.5-5.2,11.3-10,11.4-14.3s-3.5-9.1-10.7-14.5c-3.5-2.7-10.5-7.3-14.4-7.7h-.2L91.7,1.7,64.1,0Z" fill="#fff"/>
        </g>
      </g>
    </g>
  </g>
</svg>
