<svg xmlns="http://www.w3.org/2000/svg" width="142.6" height="47.6" viewBox="0 0 142.6 47.6">
  <title>Asset 6</title>
  <g id="Layer_2" data-name="Layer 2">
    <g id="page1">
      <g id="impact_basic" data-name="impact basic">
        <g>
          <path d="M78.7,45.6c-9.2,0-43.3-.3-51.9-.7-3.3,0-9.6-3.4-14.3-6.8S2.1,30.2,2,25.5C1.9,17.8,20.3,5.8,25.2,5.3L51,3.7C63,2.9,75.3,2.1,78.6,2h.2a6.1,6.1,0,0,1,5.8,4,5.7,5.7,0,0,1,.3,1.8c0,3,.1,6.1.1,9.2v.9h5l1-.3,4.3-1.2.2-.2.2-.2a10.6,10.6,0,0,1,7-2.5h4.5l22.4.4a10.5,10.5,0,0,1,9.6,5.9,10.5,10.5,0,0,1-.6,11.3,10.3,10.3,0,0,1-8.9,4.9l-14.5-.3H102.5A11,11,0,0,1,94,31.4l-3.6-1.3-.5-.2H85.1V34c0,1.8.1,3.7.1,5.5a6.5,6.5,0,0,1-1.8,4.4,6.3,6.3,0,0,1-4.3,1.7ZM67.5,24.3v-.4C67.4,24,67.5,24.1,67.5,24.3Z" fill="#666"/>
          <path d="M78.8,4a4.1,4.1,0,0,1,3.9,2.7,3.6,3.6,0,0,1,.2,1.1c.1,3.9.1,7.8.1,11.7v.3h7.5l5.4-1.6a6,6,0,0,0,1.1-.6,8.4,8.4,0,0,1,5.7-2.1h.1l26.8.5a8.5,8.5,0,0,1,7.8,4.8,8.7,8.7,0,0,1-.4,9.3,8.6,8.6,0,0,1-7.3,4h-.1l-20.1-.4h-7a9.1,9.1,0,0,1-7-3.5l-.6-.5L90.6,28H83.1v3.5c0,2.7,0,5.5.1,8.2a4.1,4.1,0,0,1-4.1,4.1h-.4c-9.2,0-43.3-.3-51.8-.7C21.9,42.8,4.1,31.7,4,25.4S21.2,7.7,25.4,7.3L78.7,4h.1M71.6,33.8a1.9,1.9,0,0,0,1.5-.7,2,2,0,0,0,.1-2.2l-3.6-6.6a1.4,1.4,0,0,1,0-.9l3.5-6.9a1.8,1.8,0,0,0-.3-2.2,2,2,0,0,0-1.4-.6,1.8,1.8,0,0,0-1.7,1.1L65.5,23a2.3,2.3,0,0,0,.1,1.8l4.2,7.9a2,2,0,0,0,1.2,1h.6M78.8,0h-.3C75.2.1,62.9.9,50.9,1.7L25.2,3.3H25c-3.9.4-10.8,5-14.3,7.7C3.5,16.4-.1,21.3,0,25.5s3.9,9.1,11.3,14.3c4.6,3.2,11.4,7,15.5,7.1,8.6.4,42.7.7,51.9.7h.4a8.1,8.1,0,0,0,5.7-2.3,8.4,8.4,0,0,0,2.4-5.8c-.1-1.8-.1-3.7-.1-5.5V31.8h2.8l2.9,1.1a13.1,13.1,0,0,0,9.6,4.5h12.7l14.5.3h.1a12.6,12.6,0,0,0,10.6-5.8,12.7,12.7,0,0,0,.7-13.4A12.7,12.7,0,0,0,129.6,12l-22.5-.4h-4.4a13.1,13.1,0,0,0-8.3,2.9v.2l-3.9,1.1-.8.2H87c0-2.7-.1-5.4-.1-8.2a6.2,6.2,0,0,0-.4-2.3A8.1,8.1,0,0,0,78.8,0Z" fill="#fff"/>
        </g>
      </g>
    </g>
  </g>
</svg>
